<svg width="44" height="44" viewBox="0 0 44 44" fill="none" xmlns="http://www.w3.org/2000/svg">
<path fill-rule="evenodd" clip-rule="evenodd" d="M15.341 20.0141H17.9762V28.5177H15.341V20.0141ZM16.5914 18.9505H16.5724C15.6184 18.9505 15 18.3004 15 17.4772C15 16.6372 15.6367 16 16.6097 16C17.5819 16 18.1797 16.6356 18.1988 17.4748C18.1988 18.298 17.5819 18.9505 16.5914 18.9505ZM28.52 28.5185H25.5319V24.1172C25.5319 22.9654 25.0645 22.1799 24.0367 22.1799C23.2505 22.1799 22.8133 22.7097 22.6098 23.2219C22.5335 23.4047 22.5454 23.6604 22.5454 23.9169V28.5185H19.5851C19.5851 28.5185 19.6233 20.7227 19.5851 20.0141H22.5454V21.3487C22.7203 20.7652 23.6662 19.9324 25.1758 19.9324C27.0486 19.9324 28.52 21.1563 28.52 23.7894V28.5185Z" fill="#ff6721"></path>
</svg>