<svg width="44" height="44" viewBox="0 0 44 44" fill="none" xmlns="http://www.w3.org/2000/svg">
<path fill-rule="evenodd" clip-rule="evenodd" d="M27.6218 17.9403C28.2281 17.5574 28.6933 16.9502 28.9117 16.2269C28.344 16.5823 27.7167 16.8394 27.0474 16.9786C26.5133 16.3758 25.7499 16 24.9051 16C23.2844 16 21.971 17.3872 21.971 19.0979C21.971 19.3407 21.9953 19.5774 22.0457 19.8034C19.607 19.674 17.4446 18.442 15.996 16.5664C15.7432 17.0255 15.5988 17.5574 15.5988 18.1246C15.5988 19.1989 16.1169 20.1473 16.9046 20.704C16.4234 20.688 15.9708 20.5471 15.5744 20.3166V20.3548C15.5744 21.8563 16.5855 23.1087 17.93 23.3924C17.6831 23.465 17.4244 23.5014 17.1557 23.5014C16.9667 23.5014 16.782 23.4828 16.604 23.4464C16.9768 24.6767 18.061 25.5737 19.3458 25.5977C18.3406 26.4291 17.0751 26.9237 15.7004 26.9237C15.4636 26.9237 15.2293 26.9104 15 26.8811C16.2991 27.7595 17.8418 28.2727 19.4995 28.2727C24.8992 28.2727 27.8502 23.5519 27.8502 19.4577C27.8502 19.323 27.8485 19.1892 27.8426 19.0571C28.4162 18.6201 28.915 18.0741 29.3072 17.4528C28.7807 17.6992 28.2147 17.8658 27.6218 17.9403Z" fill="#ff6721"></path>
</svg>